<svg xmlns="http://www.w3.org/2000/svg" viewBox="0 0 1440 320">
  <path fill="#e4f33c" fill-opacity="1" d="M0,224L30,224C60,224,120,224,180,208C240,192,300,160,360,144C420,128,480,128,540,144C600,160,660,192,720,181.3C780,171,840,117,900,96C960,75,1020,85,1080,96C1140,107,1200,117,1260,133.3C1320,149,1380,171,1410,181.3L1440,192L1440,320L1410,320C1380,320,1320,320,1260,320C1200,320,1140,320,1080,320C1020,320,960,320,900,320C840,320,780,320,720,320C660,320,600,320,540,320C480,320,420,320,360,320C300,320,240,320,180,320C120,320,60,320,30,320L0,320Z"></path>
</svg>
